<?xml version="1.0" standalone="no"?>
<!DOCTYPE svg PUBLIC "-//W3C//DTD SVG 20010904//EN"
 "http://www.w3.org/TR/2001/REC-SVG-20010904/DTD/svg10.dtd">
<svg version="1.0" xmlns="http://www.w3.org/2000/svg"
 width="1000.000000pt" height="325.000000pt" viewBox="0 0 1000.000000 325.000000"
 preserveAspectRatio="xMidYMid meet">

<g transform="translate(0.000000,325.000000) scale(0.100000,-0.100000)"
fill="#000000" stroke="none">
<path d="M1107 3240 c-117 -20 -224 -107 -269 -218 l-23 -57 0 -890 0 -890 24
-60 c29 -71 103 -150 173 -184 26 -12 76 -27 110 -32 89 -12 1647 -12 1727 1
119 20 213 87 268 192 l28 53 0 920 0 920 -28 53 c-56 106 -149 174 -266 193
-69 11 -1677 10 -1744 -1z m1798 -98 c65 -30 112 -75 141 -137 l24 -50 0 -880
c0 -834 -1 -882 -19 -921 -27 -60 -80 -114 -136 -140 l-50 -24 -880 0 -880 0
-50 24 c-27 12 -67 42 -88 66 -77 85 -72 13 -72 990 0 698 3 883 13 912 17 48
92 131 138 153 20 9 57 21 83 25 25 4 424 7 886 7 l840 -2 50 -23z"/>
<path d="M1030 2755 l0 -105 105 0 105 0 0 105 0 105 -105 0 -105 0 0 -105z"/>
<path d="M2740 2755 l0 -105 105 0 105 0 0 105 0 105 -105 0 -105 0 0 -105z"/>
<path d="M1662 2518 c-9 -9 -12 -115 -12 -452 0 -243 4 -446 8 -452 21 -31 49
-18 385 189 190 117 355 219 367 228 52 35 32 51 -341 279 -193 118 -361 216
-373 218 -11 2 -27 -3 -34 -10z m350 -269 c145 -89 271 -167 281 -174 16 -11
-16 -33 -265 -185 -156 -96 -286 -175 -290 -177 -5 -2 -8 154 -8 346 0 226 4
351 10 351 5 0 128 -73 272 -161z"/>
<path d="M1030 2305 l0 -105 105 0 105 0 0 105 0 105 -105 0 -105 0 0 -105z"/>
<path d="M2740 2305 l0 -105 105 0 105 0 0 105 0 105 -105 0 -105 0 0 -105z"/>
<path d="M1030 1855 l0 -105 105 0 105 0 0 105 0 105 -105 0 -105 0 0 -105z"/>
<path d="M2740 1855 l0 -105 105 0 105 0 0 105 0 105 -105 0 -105 0 0 -105z"/>
<path d="M1030 1405 l0 -105 105 0 105 0 0 105 0 105 -105 0 -105 0 0 -105z"/>
<path d="M2740 1405 l0 -105 105 0 105 0 0 105 0 105 -105 0 -105 0 0 -105z"/>
<path d="M475 2205 c-116 -28 -223 -57 -239 -64 -122 -50 -216 -194 -216 -332
0 -59 362 -1554 389 -1607 65 -125 228 -215 358 -195 82 12 1518 364 1559 382
58 26 141 105 170 164 33 63 46 139 38 210 l-6 57 -44 0 c-44 0 -44 0 -37 -28
14 -48 7 -136 -14 -182 -46 -104 -107 -145 -268 -185 -1247 -304 -1382 -335
-1439 -335 -97 1 -183 50 -237 137 -12 19 -94 333 -205 790 -204 835 -202 819
-151 920 28 54 83 108 131 128 17 7 129 37 249 66 l217 53 0 38 c0 33 -3 38
-22 37 -13 -1 -117 -25 -233 -54z"/>
<path d="M7015 2026 c-213 -52 -353 -255 -318 -463 31 -180 163 -312 345 -343
170 -30 350 64 429 225 120 244 -28 533 -300 585 -66 12 -92 12 -156 -4z m151
-27 c123 -22 230 -105 282 -217 24 -50 27 -70 27 -157 0 -87 -3 -107 -27 -157
-35 -74 -95 -138 -165 -176 -232 -123 -502 10 -554 271 -39 192 110 403 308
437 68 11 64 11 129 -1z"/>
<path d="M6994 1952 c-150 -53 -240 -186 -232 -342 6 -133 76 -238 196 -297
50 -24 69 -28 147 -28 108 0 159 20 233 89 73 68 107 148 107 251 0 67 -5 90
-29 142 -33 73 -104 144 -174 175 -66 30 -181 34 -248 10z m238 -40 c60 -26
127 -93 158 -157 19 -40 24 -66 24 -130 0 -96 -25 -156 -92 -223 -64 -64 -120
-87 -217 -87 -68 0 -89 4 -137 28 -256 126 -227 494 45 583 57 19 161 12 219
-14z"/>
<path d="M6985 1876 c-98 -47 -157 -141 -157 -251 0 -110 59 -204 157 -251 72
-34 172 -33 243 2 203 101 203 397 0 498 -71 35 -171 36 -243 2z m213 -21 c49
-21 110 -80 133 -130 12 -25 19 -63 19 -100 0 -73 -23 -126 -76 -177 -50 -48
-100 -68 -169 -68 -97 0 -173 45 -218 129 -66 121 -19 274 105 335 61 31 147
35 206 11z"/>
<path d="M7014 1817 c-207 -99 -139 -400 91 -401 102 -1 178 59 205 163 22 84
-20 182 -95 227 -65 38 -137 41 -201 11z m161 -26 c159 -72 142 -292 -26 -343
-106 -31 -229 63 -229 177 0 49 21 94 61 131 59 55 125 67 194 35z"/>
<path d="M9611 2030 c-24 -5 -63 -19 -87 -31 -178 -85 -176 -373 2 -460 30
-14 74 -24 128 -28 78 -6 81 -7 81 -31 0 -35 -39 -47 -115 -34 -55 9 -93 4
-79 -11 13 -12 127 -28 162 -21 45 8 67 29 67 65 0 43 -28 61 -91 61 -125 0
-215 57 -245 155 -26 88 -13 160 42 224 86 100 261 115 418 36 44 -22 73 -32
79 -26 13 13 -74 67 -135 86 -64 19 -173 26 -227 15z"/>
<path d="M3350 1625 c0 -327 2 -375 15 -375 13 0 15 48 15 375 0 327 -2 375
-15 375 -13 0 -15 -48 -15 -375z"/>
<path d="M3420 1625 c0 -327 2 -375 15 -375 13 0 15 48 15 375 0 327 -2 375
-15 375 -13 0 -15 -48 -15 -375z"/>
<path d="M3480 1625 c0 -368 0 -375 20 -375 20 0 20 7 20 375 0 368 0 375 -20
375 -20 0 -20 -7 -20 -375z"/>
<path d="M3550 1625 c0 -327 2 -375 15 -375 13 0 15 23 15 145 l0 145 150 0
150 0 0 -145 c0 -122 2 -145 15 -145 13 0 15 48 15 375 0 327 -2 375 -15 375
-13 0 -15 -23 -15 -145 l0 -145 -150 0 -150 0 0 145 c0 122 -2 145 -15 145
-13 0 -15 -48 -15 -375z m330 35 c0 -19 -7 -20 -150 -20 -143 0 -150 1 -150
20 0 19 7 20 150 20 143 0 150 -1 150 -20z m0 -70 c0 -20 -5 -20 -147 -18
-131 3 -148 5 -151 21 -3 16 9 17 147 17 145 0 151 -1 151 -20z"/>
<path d="M3950 1625 c0 -327 2 -375 15 -375 13 0 15 48 15 375 0 327 -2 375
-15 375 -13 0 -15 -48 -15 -375z"/>
<path d="M4010 1625 c0 -327 2 -375 15 -375 13 0 15 48 15 375 0 327 -2 375
-15 375 -13 0 -15 -48 -15 -375z"/>
<path d="M4080 1625 c0 -327 2 -375 15 -375 13 0 15 48 15 375 0 327 -2 375
-15 375 -13 0 -15 -48 -15 -375z"/>
<path d="M4461 1978 c-5 -13 -68 -174 -141 -358 -152 -384 -147 -370 -128
-370 14 0 33 45 239 568 29 72 55 132 58 132 3 0 67 -156 141 -346 121 -309
149 -369 166 -352 4 4 -88 243 -283 736 -8 20 -43 14 -52 -10z"/>
<path d="M4550 1995 c0 -5 211 -545 275 -702 9 -24 23 -43 31 -43 8 0 14 3 14
7 0 4 -66 173 -146 375 -96 243 -150 368 -160 368 -8 0 -14 -2 -14 -5z"/>
<path d="M4624 1984 c93 -252 292 -734 303 -734 7 0 13 4 13 8 0 5 -65 172
-144 373 -105 265 -149 365 -162 368 -13 2 -15 -1 -10 -15z"/>
<path d="M4693 1988 c3 -7 69 -176 148 -375 110 -281 146 -363 160 -363 13 0
-10 67 -123 353 -77 193 -144 362 -149 375 -5 12 -16 22 -25 22 -9 0 -14 -6
-11 -12z"/>
<path d="M5080 1625 c0 -327 2 -375 15 -375 13 0 15 48 15 375 0 327 -2 375
-15 375 -13 0 -15 -48 -15 -375z"/>
<path d="M5150 1625 c0 -327 2 -375 15 -375 13 0 15 48 15 375 0 327 -2 375
-15 375 -13 0 -15 -48 -15 -375z"/>
<path d="M5210 1625 c0 -327 2 -375 15 -375 13 0 15 48 15 375 0 327 -2 375
-15 375 -13 0 -15 -48 -15 -375z"/>
<path d="M5280 1625 c0 -327 2 -375 15 -375 13 0 15 48 15 375 0 327 -2 375
-15 375 -13 0 -15 -48 -15 -375z"/>
<path d="M5840 1626 c0 -328 2 -376 15 -376 13 0 15 44 15 340 0 187 3 340 8
340 4 0 63 -109 132 -241 114 -221 141 -262 156 -246 3 3 -59 128 -139 279
-113 214 -149 274 -166 276 l-21 3 0 -375z"/>
<path d="M5990 1868 c39 -73 105 -199 148 -280 42 -82 82 -148 89 -148 7 0 13
5 13 10 0 6 -64 132 -142 280 -104 197 -147 270 -160 270 -14 0 -4 -26 52
-132z"/>
<path d="M6002 1989 c3 -8 69 -133 146 -279 105 -200 144 -265 158 -265 13 0
49 59 144 237 69 130 128 240 133 244 4 4 7 -146 7 -334 0 -297 2 -342 15
-342 13 0 15 48 15 376 0 375 0 375 -21 372 -16 -2 -52 -62 -156 -262 -115
-219 -138 -255 -147 -240 -5 11 -67 127 -137 259 -82 156 -133 241 -144 244
-12 2 -16 -2 -13 -10z"/>
<path d="M6337 1823 c-84 -158 -101 -203 -78 -203 6 0 201 361 201 374 0 3 -6
6 -14 6 -8 0 -54 -75 -109 -177z"/>
<path d="M6394 1787 c-99 -188 -118 -237 -95 -237 3 0 21 28 39 63 201 382
203 387 185 387 -13 0 -47 -57 -129 -213z"/>
<path d="M7520 1993 c0 -4 66 -173 146 -375 118 -298 149 -368 164 -368 15 0
46 70 164 368 80 203 146 371 146 375 0 4 -6 7 -14 7 -9 0 -58 -112 -140 -317
-69 -175 -130 -333 -137 -350 -6 -18 -15 -33 -19 -33 -4 0 -13 15 -19 33 -7
17 -68 175 -137 350 -82 205 -131 317 -140 317 -8 0 -14 -3 -14 -7z"/>
<path d="M7590 1995 c0 -11 234 -600 241 -609 5 -5 11 -2 15 7 9 24 -223 607
-242 607 -8 0 -14 -2 -14 -5z"/>
<path d="M7664 1984 c66 -176 203 -514 208 -514 21 0 3 60 -83 280 -70 178
-101 246 -114 249 -14 2 -16 -1 -11 -15z"/>
<path d="M7730 1998 c0 -2 40 -104 89 -228 73 -184 90 -220 96 -199 8 34 -145
422 -169 427 -9 2 -16 2 -16 0z"/>
<path d="M8162 1948 c-11 -29 -77 -196 -146 -371 -69 -175 -126 -320 -126
-323 0 -3 7 -4 16 -2 10 2 63 124 160 368 79 201 144 368 144 373 0 4 -6 7
-14 7 -8 0 -23 -23 -34 -52z"/>
<path d="M8113 1643 c-78 -197 -145 -366 -149 -377 -5 -14 -3 -17 11 -15 26 6
320 749 296 749 -13 0 -51 -85 -158 -357z"/>
<path d="M8180 1634 c-80 -202 -147 -371 -149 -376 -2 -6 5 -8 15 -6 13 2 36
48 85 173 37 94 103 261 147 373 65 163 77 202 63 202 -12 0 -51 -89 -161
-366z"/>
<path d="M8420 1625 c0 -327 2 -375 15 -375 13 0 15 48 15 375 0 327 -2 375
-15 375 -13 0 -15 -48 -15 -375z"/>
<path d="M8490 1625 c0 -327 2 -375 15 -375 13 0 15 48 15 375 0 327 -2 375
-15 375 -13 0 -15 -48 -15 -375z"/>
<path d="M8550 1625 c0 -368 0 -375 20 -375 20 0 20 7 20 375 0 368 0 375 -20
375 -20 0 -20 -7 -20 -375z"/>
<path d="M8620 1625 c0 -327 2 -375 15 -375 13 0 15 48 15 375 0 327 -2 375
-15 375 -13 0 -15 -48 -15 -375z"/>
<path d="M8740 1625 c0 -327 2 -375 15 -375 13 0 15 48 15 375 0 327 -2 375
-15 375 -13 0 -15 -48 -15 -375z"/>
<path d="M8810 1625 c0 -327 2 -375 15 -375 13 0 15 48 15 375 0 327 -2 375
-15 375 -13 0 -15 -48 -15 -375z"/>
<path d="M8870 1625 c0 -327 2 -375 15 -375 13 0 15 48 15 375 0 327 -2 375
-15 375 -13 0 -15 -48 -15 -375z"/>
<path d="M8940 1625 l0 -375 190 0 c162 0 190 2 190 15 0 13 -26 15 -175 15
-149 0 -175 2 -175 15 0 13 26 15 175 15 149 0 175 2 175 15 0 13 -26 15 -175
15 -168 0 -175 1 -175 20 0 19 7 20 175 20 149 0 175 2 175 15 0 13 -26 15
-175 15 l-175 0 0 65 0 65 90 0 c73 0 90 3 90 15 0 12 -17 15 -90 15 -83 0
-90 1 -90 20 0 19 7 20 90 20 73 0 90 3 90 15 0 12 -17 15 -90 15 -83 0 -90 1
-90 20 0 19 7 20 90 20 73 0 90 3 90 15 0 12 -17 15 -90 15 l-90 0 0 65 0 65
175 0 c149 0 175 2 175 15 0 13 -26 15 -175 15 -168 0 -175 1 -175 20 0 19 7
20 175 20 149 0 175 2 175 15 0 13 -26 15 -175 15 -149 0 -175 2 -175 15 0 13
26 15 175 15 149 0 175 2 175 15 0 13 -28 15 -190 15 l-190 0 0 -375z"/>
<path d="M9585 1955 c-81 -31 -125 -96 -125 -184 0 -61 13 -97 48 -135 38 -40
81 -56 152 -56 33 0 76 -6 95 -14 67 -29 70 -137 4 -171 -37 -20 -159 -19
-206 0 -43 18 -66 19 -61 3 15 -45 225 -65 285 -28 58 35 77 98 49 165 -22 52
-56 68 -157 75 -101 7 -132 23 -161 81 -41 79 -14 179 60 222 68 40 200 33
300 -15 32 -15 47 -17 54 -10 8 8 -7 20 -56 43 -56 26 -83 32 -154 35 -61 3
-99 -1 -127 -11z"/>
<path d="M9579 1877 c-22 -15 -39 -38 -49 -65 -13 -37 -13 -47 0 -84 23 -63
55 -81 158 -88 98 -6 130 -20 162 -73 14 -22 20 -50 20 -88 0 -98 -59 -156
-168 -166 -68 -6 -148 9 -209 39 -31 16 -46 19 -54 11 -8 -8 8 -20 54 -43 51
-25 82 -33 143 -37 96 -6 152 7 200 49 48 43 64 77 64 143 0 66 -17 110 -56
147 -39 36 -74 48 -145 48 -86 0 -125 19 -140 68 -9 33 -9 45 5 74 9 19 28 40
42 47 37 17 152 14 206 -6 51 -18 76 -11 43 13 -31 23 -85 34 -166 34 -63 0
-82 -4 -110 -23z"/>
<path d="M4482 1850 c-6 -14 -58 -146 -117 -295 -126 -316 -122 -305 -102
-305 23 0 252 583 238 607 -9 16 -11 16 -19 -7z"/>
<path d="M9640 1833 c-30 -11 -50 -37 -50 -63 0 -43 28 -60 97 -60 143 0 237
-76 250 -204 11 -110 -50 -208 -150 -242 -101 -35 -258 -16 -341 41 -26 18
-42 23 -53 16 -13 -7 -9 -13 24 -35 71 -47 149 -69 248 -69 138 0 218 38 271
129 53 91 40 232 -29 311 -47 53 -100 75 -197 82 -73 5 -85 9 -88 25 -8 40 67
59 143 38 31 -9 55 -6 55 8 0 20 -140 38 -180 23z"/>
<path d="M5910 1538 c0 -250 2 -288 15 -288 22 0 22 512 0 550 -13 22 -14 -8
-15 -262z"/>
<path d="M6532 1795 c-8 -18 -12 -110 -12 -285 0 -224 2 -260 15 -260 13 0 15
38 15 285 0 157 -2 285 -3 285 -2 0 -9 -11 -15 -25z"/>
<path d="M4428 1532 c-54 -136 -100 -255 -104 -266 -5 -14 -3 -17 10 -15 13 3
45 72 112 243 86 220 106 286 87 286 -5 0 -52 -111 -105 -248z"/>
<path d="M5400 1695 c0 -13 27 -15 180 -15 153 0 180 2 180 15 0 13 -27 15
-180 15 -153 0 -180 -2 -180 -15z"/>
<path d="M4483 1493 c-45 -114 -85 -216 -89 -227 -5 -14 -3 -17 11 -15 25 6
178 394 167 427 -6 19 -23 -17 -89 -185z"/>
<path d="M6472 1680 c-8 -14 -12 -79 -12 -225 0 -176 2 -205 15 -205 13 0 15
32 15 225 0 124 -1 225 -3 225 -1 0 -8 -9 -15 -20z"/>
<path d="M5980 1468 c0 -187 2 -218 15 -218 22 0 22 386 0 416 -13 17 -14 -5
-15 -198z"/>
<path d="M5400 1625 c0 -13 27 -15 180 -15 153 0 180 2 180 15 0 13 -27 15
-180 15 -153 0 -180 -2 -180 -15z"/>
<path d="M5400 1555 c0 -13 27 -15 180 -15 153 0 180 2 180 15 0 13 -27 15
-180 15 -153 0 -180 -2 -180 -15z"/>
<path d="M6040 1413 c0 -138 2 -163 15 -163 21 0 21 263 0 300 -13 22 -14 8
-15 -137z"/>
<path d="M6402 1545 c-7 -16 -12 -80 -12 -160 0 -113 2 -135 15 -135 13 0 15
24 15 160 0 88 -2 160 -3 160 -2 0 -9 -11 -15 -25z"/>
<path d="M4537 1494 c-18 -18 -2 -24 59 -24 48 0 65 3 62 13 -5 13 -109 23
-121 11z"/>
<path d="M4507 1415 c-6 -13 7 -15 89 -15 72 0 95 3 92 13 -3 8 -33 13 -90 15
-70 2 -87 0 -91 -13z"/>
<path d="M4487 1364 c-19 -19 2 -24 109 -24 88 0 115 3 112 13 -5 13 -208 23
-221 11z"/>
</g>
</svg>
